<mxfile host="65bd71144e">
    <diagram id="rwBQ8AvL1ABB5knG42jK" name="第1頁">
        <mxGraphModel dx="1604" dy="1251" grid="1" gridSize="10" guides="1" tooltips="1" connect="1" arrows="1" fold="1" page="1" pageScale="1" pageWidth="850" pageHeight="1100" math="0" shadow="0">
            <root>
                <mxCell id="0"/>
                <mxCell id="1" parent="0"/>
                <mxCell id="4" value="" style="rounded=1;whiteSpace=wrap;html=1;" parent="1" vertex="1">
                    <mxGeometry x="95" y="80" width="190" height="390" as="geometry"/>
                </mxCell>
                <mxCell id="5" value="&lt;span style=&quot;font-family: &amp;quot;Roboto Mono&amp;quot;, monospace; font-size: 14px; text-align: start;&quot;&gt;&lt;font color=&quot;#ffffff&quot;&gt;author_id&lt;/font&gt;&lt;/span&gt;" style="rounded=1;whiteSpace=wrap;html=1;" parent="1" vertex="1">
                    <mxGeometry x="130" y="150" width="120" height="40" as="geometry"/>
                </mxCell>
                <mxCell id="6" value="&lt;span style=&quot;font-family: &amp;quot;Roboto Mono&amp;quot;, monospace; font-size: 14px; text-align: start;&quot;&gt;&lt;font color=&quot;#ffffff&quot;&gt;content&lt;/font&gt;&lt;/span&gt;" style="rounded=1;whiteSpace=wrap;html=1;" parent="1" vertex="1">
                    <mxGeometry x="130" y="200" width="120" height="40" as="geometry"/>
                </mxCell>
                <mxCell id="7" value="&lt;div style=&quot;text-align: start;&quot;&gt;&lt;span style=&quot;background-color: initial; font-size: 14px;&quot;&gt;&lt;font face=&quot;Roboto Mono, monospace&quot; color=&quot;#ffffff&quot;&gt;created_time&lt;/font&gt;&lt;/span&gt;&lt;/div&gt;" style="rounded=1;whiteSpace=wrap;html=1;" parent="1" vertex="1">
                    <mxGeometry x="130" y="250" width="120" height="40" as="geometry"/>
                </mxCell>
                <mxCell id="8" value="&lt;span style=&quot;font-family: &amp;quot;Roboto Mono&amp;quot;, monospace; font-size: 14px; text-align: start;&quot;&gt;&lt;font color=&quot;#ffffff&quot;&gt;id（貼文的id）&lt;/font&gt;&lt;/span&gt;" style="rounded=1;whiteSpace=wrap;html=1;" parent="1" vertex="1">
                    <mxGeometry x="130" y="300" width="120" height="40" as="geometry"/>
                </mxCell>
                <mxCell id="9" value="&lt;div style=&quot;text-align: start;&quot;&gt;&lt;font face=&quot;Roboto Mono, monospace&quot; color=&quot;#ffffff&quot;&gt;&lt;span style=&quot;font-size: 14px;&quot;&gt;tag&lt;/span&gt;&lt;/font&gt;&lt;/div&gt;" style="rounded=1;whiteSpace=wrap;html=1;" parent="1" vertex="1">
                    <mxGeometry x="130" y="350" width="120" height="40" as="geometry"/>
                </mxCell>
                <mxCell id="10" value="&lt;span style=&quot;font-family: &amp;quot;Roboto Mono&amp;quot;, monospace; font-size: 14px; text-align: start;&quot;&gt;&lt;font color=&quot;#ffffff&quot;&gt;title&lt;/font&gt;&lt;/span&gt;" style="rounded=1;whiteSpace=wrap;html=1;" parent="1" vertex="1">
                    <mxGeometry x="130" y="400" width="120" height="40" as="geometry"/>
                </mxCell>
                <mxCell id="28" value="&lt;div style=&quot;font-size: 12px;&quot;&gt;&lt;font style=&quot;font-size: 12px;&quot;&gt;Search the specific user via email.&lt;/font&gt;&lt;/div&gt;&lt;div style=&quot;font-size: 12px;&quot;&gt;&lt;font style=&quot;font-size: 12px;&quot;&gt;● Send the friend request to the user.&lt;/font&gt;&lt;/div&gt;&lt;div style=&quot;font-size: 12px;&quot;&gt;&lt;font style=&quot;font-size: 12px;&quot;&gt;● Show all friend invitations in Console/Logcat instantly.&lt;/font&gt;&lt;/div&gt;&lt;div style=&quot;font-size: 12px;&quot;&gt;&lt;font style=&quot;font-size: 12px;&quot;&gt;● Accept the invitation and add to the friend list.&lt;/font&gt;&lt;/div&gt;&lt;div style=&quot;font-size: 12px;&quot;&gt;&lt;font style=&quot;font-size: 12px;&quot;&gt;● (Optional) Search Articles:&lt;/font&gt;&lt;/div&gt;&lt;div style=&quot;font-size: 12px;&quot;&gt;&lt;font style=&quot;font-size: 12px;&quot;&gt;&lt;span style=&quot;white-space: pre;&quot;&gt;&#9;&lt;/span&gt;○ Search all articles via a specific friend.&lt;/font&gt;&lt;/div&gt;&lt;div style=&quot;font-size: 12px;&quot;&gt;&lt;font style=&quot;font-size: 12px;&quot;&gt;&lt;span style=&quot;white-space: pre;&quot;&gt;&#9;&lt;/span&gt;○ Search all articles via a specific friend and a specific tag.&lt;/font&gt;&lt;/div&gt;" style="text;strokeColor=none;fillColor=none;html=1;fontSize=24;fontStyle=1;verticalAlign=middle;align=left;labelBackgroundColor=none;fontColor=#FFFFFF;" parent="1" vertex="1">
                    <mxGeometry x="330" y="350" width="365" height="140" as="geometry"/>
                </mxCell>
                <mxCell id="29" value="posts" style="text;strokeColor=none;fillColor=none;html=1;fontSize=24;fontStyle=1;verticalAlign=middle;align=center;" vertex="1" parent="1">
                    <mxGeometry x="140" y="90" width="100" height="40" as="geometry"/>
                </mxCell>
                <mxCell id="30" value="" style="rounded=1;whiteSpace=wrap;html=1;" vertex="1" parent="1">
                    <mxGeometry x="330" y="80" width="190" height="250" as="geometry"/>
                </mxCell>
                <mxCell id="31" value="&lt;span style=&quot;font-family: &amp;quot;Roboto Mono&amp;quot;, monospace; font-size: 14px; text-align: start;&quot;&gt;&lt;font color=&quot;#ffffff&quot;&gt;email&lt;/font&gt;&lt;/span&gt;" style="rounded=1;whiteSpace=wrap;html=1;" vertex="1" parent="1">
                    <mxGeometry x="365" y="150" width="120" height="40" as="geometry"/>
                </mxCell>
                <mxCell id="32" value="&lt;span style=&quot;font-family: &amp;quot;Roboto Mono&amp;quot;, monospace; font-size: 14px; text-align: start;&quot;&gt;&lt;font color=&quot;#ffffff&quot;&gt;id&lt;/font&gt;&lt;/span&gt;" style="rounded=1;whiteSpace=wrap;html=1;" vertex="1" parent="1">
                    <mxGeometry x="365" y="200" width="120" height="40" as="geometry"/>
                </mxCell>
                <mxCell id="33" value="&lt;div style=&quot;text-align: start;&quot;&gt;&lt;span style=&quot;background-color: initial; font-size: 14px;&quot;&gt;&lt;font face=&quot;Roboto Mono, monospace&quot; color=&quot;#ffffff&quot;&gt;name&lt;/font&gt;&lt;/span&gt;&lt;/div&gt;" style="rounded=1;whiteSpace=wrap;html=1;" vertex="1" parent="1">
                    <mxGeometry x="365" y="250" width="120" height="40" as="geometry"/>
                </mxCell>
                <mxCell id="37" value="users" style="text;strokeColor=none;fillColor=none;html=1;fontSize=24;fontStyle=1;verticalAlign=middle;align=center;" vertex="1" parent="1">
                    <mxGeometry x="375" y="90" width="100" height="40" as="geometry"/>
                </mxCell>
                <mxCell id="38" value="" style="endArrow=none;html=1;exitX=1;exitY=0.5;exitDx=0;exitDy=0;entryX=0;entryY=0.5;entryDx=0;entryDy=0;" edge="1" parent="1" source="5" target="30">
                    <mxGeometry width="50" height="50" relative="1" as="geometry">
                        <mxPoint x="300" y="240" as="sourcePoint"/>
                        <mxPoint x="350" y="190" as="targetPoint"/>
                    </mxGeometry>
                </mxCell>
            </root>
        </mxGraphModel>
    </diagram>
</mxfile>